<?xml version="1.0" standalone="no"?>
<!DOCTYPE svg PUBLIC "-//W3C//DTD SVG 20010904//EN"
 "http://www.w3.org/TR/2001/REC-SVG-20010904/DTD/svg10.dtd">
<svg version="1.0" xmlns="http://www.w3.org/2000/svg"
 width="201.000000pt" height="199.000000pt" viewBox="0 0 201.000000 199.000000"
 preserveAspectRatio="xMidYMid meet" background="#073435">

<g transform="translate(0.000000,199.000000) scale(0.100000,-0.100000)"
fill="#FFF" stroke="none">
<path d="M0 1740 l0 -250 100 0 100 0 0 160 0 160 180 0 180 0 0 90 0 90 -280
0 -280 0 0 -250z"/>
<path d="M610 1715 l0 -275 -75 0 -75 0 0 -65 0 -65 150 0 150 0 0 340 0 340
-75 0 -75 0 0 -275z"/>
<path d="M810 1900 l0 -90 200 0 200 0 0 90 0 90 -200 0 -200 0 0 -90z"/>
<path d="M1260 1650 l0 -340 150 0 150 0 0 65 0 65 -75 0 -75 0 0 275 0 275
-75 0 -75 0 0 -340z"/>
<path d="M1460 1900 l0 -90 175 0 175 0 0 -160 0 -160 100 0 100 0 0 250 0
250 -275 0 -275 0 0 -90z"/>
<path d="M250 1330 l0 -430 80 0 80 0 0 365 0 365 75 0 75 0 0 65 0 65 -155 0
-155 0 0 -430z"/>
<path d="M810 1695 l0 -65 200 0 200 0 0 65 0 65 -200 0 -200 0 0 -65z"/>
<path d="M1460 1695 l0 -65 75 0 75 0 0 -365 0 -365 75 0 75 0 0 430 0 430
-150 0 -150 0 0 -65z"/>
<path d="M460 1535 l0 -45 50 0 50 0 0 45 0 45 -50 0 -50 0 0 -45z"/>
<path d="M810 1420 l0 -160 -175 0 -175 0 0 -180 0 -180 175 0 175 0 0 -165 0
-165 200 0 200 0 0 165 0 165 175 0 175 0 0 180 0 180 -175 0 -175 0 0 160 0
160 -200 0 -200 0 0 -160z"/>
<path d="M1460 1535 l0 -45 50 0 50 0 0 45 0 45 -50 0 -50 0 0 -45z"/>
<path d="M0 1375 l0 -65 100 0 100 0 0 65 0 65 -100 0 -100 0 0 -65z"/>
<path d="M1810 1375 l0 -65 100 0 100 0 0 65 0 65 -100 0 -100 0 0 -65z"/>
<path d="M0 1080 l0 -180 100 0 100 0 0 180 0 180 -100 0 -100 0 0 -180z"/>
<path d="M1810 1080 l0 -180 100 0 100 0 0 180 0 180 -100 0 -100 0 0 -180z"/>
<path d="M0 780 l0 -70 305 0 305 0 0 -70 0 -70 75 0 75 0 0 140 0 140 -380 0
-380 0 0 -70z"/>
<path d="M1260 710 l0 -140 75 0 75 0 0 70 0 70 300 0 300 0 0 70 0 70 -375 0
-375 0 0 -140z"/>
<path d="M0 330 l0 -330 280 0 280 0 0 165 0 165 -180 0 -180 0 0 165 0 165
-100 0 -100 0 0 -330z"/>
<path d="M250 520 l0 -140 755 0 755 0 0 140 0 140 -75 0 -75 0 0 -70 0 -70
-600 0 -600 0 0 70 0 70 -80 0 -80 0 0 -140z"/>
<path d="M460 615 l0 -45 50 0 50 0 0 45 0 45 -50 0 -50 0 0 -45z"/>
<path d="M1460 615 l0 -45 50 0 50 0 0 45 0 45 -50 0 -50 0 0 -45z"/>
<path d="M1810 495 l0 -165 -175 0 -175 0 0 -165 0 -165 275 0 275 0 0 330 0
330 -100 0 -100 0 0 -165z"/>
<path d="M610 165 l0 -165 75 0 75 0 0 165 0 165 -75 0 -75 0 0 -165z"/>
<path d="M810 165 l0 -165 200 0 200 0 0 165 0 165 -200 0 -200 0 0 -165z"/>
<path d="M1260 165 l0 -165 75 0 75 0 0 165 0 165 -75 0 -75 0 0 -165z"/>
</g>
</svg>
